<!DOCTYPE svg PUBLIC "-//W3C//DTD SVG 1.1//EN" "http://www.w3.org/Graphics/SVG/1.1/DTD/svg11.dtd">
<!-- Uploaded to: SVG Repo, www.svgrepo.com, Transformed by: SVG Repo Mixer Tools -->
<svg width="800px" height="800px" viewBox="0 0 1024 1024" fill="#000000" class="icon" version="1.1" xmlns="http://www.w3.org/2000/svg">
<g id="SVGRepo_bgCarrier" stroke-width="0"/>
<g id="SVGRepo_tracerCarrier" stroke-linecap="round" stroke-linejoin="round"/>
<g id="SVGRepo_iconCarrier">
<path d="M512.476 799.868c-4.412 0-8.074-3.574-8.074-7.996 0-4.418 3.498-7.996 7.918-7.996h0.156a7.992 7.992 0 0 1 7.996 7.996 7.99 7.99 0 0 1-7.996 7.996zM216.134 771.208a8.032 8.032 0 0 1-6.816-3.794 8.012 8.012 0 0 1 2.608-11.01c8.856-5.452 19.954-10.606 34.906-16.198 24.528-9.166 79.004-30.516 109.684-45.712 3.974-1.982 8.746-0.328 10.722 3.608a8.014 8.014 0 0 1-3.616 10.73c-31.268 15.476-86.406 37.092-111.192 46.338-13.956 5.232-24.162 9.95-32.102 14.854a8.092 8.092 0 0 1-4.194 1.184zM807.896 771.24a7.9 7.9 0 0 1-4.186-1.202c-7.934-4.904-18.148-9.622-32.158-14.87-24.738-9.23-79.806-30.814-111.168-46.338a8.01 8.01 0 0 1-3.624-10.714 7.988 7.988 0 0 1 10.714-3.624c30.782 15.244 85.196 36.562 109.668 45.712 15.024 5.592 26.128 10.762 34.968 16.244a7.97 7.97 0 0 1 2.592 10.994 7.94 7.94 0 0 1-6.806 3.798zM512 719.904c-75.308 0-199.908-116.042-199.908-248.26 0-4.42 3.576-7.998 7.996-7.998s7.996 3.578 7.996 7.998c0 119.758 114.736 232.268 183.916 232.268 69.188 0 183.916-112.51 183.916-232.268 0-4.42 3.576-7.998 7.996-7.998s7.996 3.578 7.996 7.998c0 132.22-124.6 248.26-199.908 248.26z" fill=""/>
<path d="M320.088 464.022a8.006 8.006 0 0 1-7.964-7.246c-6.966-74.412 9.192-133.768 48.024-176.412 57.662-63.314 152.266-76.606 221.478-76.606 39.136 0 66.438 4.294 67.578 4.482a7.964 7.964 0 0 1 6.668 6.974 7.978 7.978 0 0 1-4.886 8.318c-36.094 14.844-32.206 50.172-29.05 64.172 14.682-0.578 45.246 2.82 67.89 29.268 24.614 28.752 32.018 75.95 21.99 140.288a7.964 7.964 0 0 1-6.09 6.55 7.986 7.986 0 0 1-8.374-3.202l-52.162-74.52c-18.352 7.99-74.186 29.956-133.612 29.956-59.332 0-114.542-21.904-132.792-29.932l-52.148 74.498a7.996 7.996 0 0 1-6.55 3.412z m327.85-95.956c2.532 0 5.014 1.21 6.56 3.412l44.134 63.064c4.998-49.07-2.03-85.062-20.958-107.17-17.648-20.616-41.45-23.692-54.052-23.692-3.858 0-6.294 0.304-6.542 0.336-3.688 0.476-7.42-1.688-8.684-5.294-6.466-18.632-9.308-54.35 15.836-77.2-11.122-0.938-25.8-1.772-42.606-1.772-65.986 0-155.922 12.384-209.654 71.382-31.736 34.852-46.932 82.392-45.308 141.552l42.848-61.206a7.966 7.966 0 0 1 10.058-2.6c0.64 0.312 64.698 31.172 132.01 31.172 67.484 0 132.236-30.876 132.892-31.188a7.876 7.876 0 0 1 3.466-0.796zM376.062 687.92a7.99 7.99 0 0 1-7.996-7.996v-15.994c0-4.418 3.576-7.996 7.996-7.996s7.996 3.578 7.996 7.996v15.994a7.99 7.99 0 0 1-7.996 7.996z" fill=""/>
<path d="M440.042 767.882a8.02 8.02 0 0 1-6.256-2.998l-63.97-79.962a8.012 8.012 0 0 1 1.25-11.246 8.024 8.024 0 0 1 11.246 1.25l63.97 79.962a8.008 8.008 0 0 1-1.25 11.244 7.924 7.924 0 0 1-4.99 1.75z" fill=""/>
<path d="M440.042 767.882a8.014 8.014 0 0 1-7.162-4.42 7.992 7.992 0 0 1 3.578-10.728l63.97-31.986a8.004 8.004 0 0 1 10.728 3.576 7.994 7.994 0 0 1-3.576 10.73l-63.97 31.984a8.094 8.094 0 0 1-3.568 0.844zM647.938 687.92a7.99 7.99 0 0 1-7.996-7.996v-15.994c0-4.418 3.576-7.996 7.996-7.996s7.996 3.578 7.996 7.996v15.994a7.99 7.99 0 0 1-7.996 7.996z" fill=""/>
<path d="M583.966 767.882a7.926 7.926 0 0 1-4.998-1.75 8.02 8.02 0 0 1-1.248-11.244l63.97-79.962c2.764-3.42 7.808-3.998 11.244-1.25a8.026 8.026 0 0 1 1.25 11.246l-63.97 79.962a8.02 8.02 0 0 1-6.248 2.998z" fill=""/>
<path d="M583.966 767.882a8.078 8.078 0 0 1-3.576-0.844l-63.97-31.984a7.994 7.994 0 0 1-3.576-10.73 8 8 0 0 1 10.728-3.576l63.97 31.986c3.954 1.966 5.544 6.778 3.578 10.728a8 8 0 0 1-7.154 4.42z" fill=""/>
<path d="M551.982 941.944a8.004 8.004 0 0 1-7.966-7.262 8.012 8.012 0 0 1 7.216-8.7c198.548-18.57 356.148-176.186 374.75-374.75 0.422-4.404 4.326-7.652 8.7-7.216a8.006 8.006 0 0 1 7.23 8.714c-19.318 206.218-182.994 369.894-389.182 389.182-0.25 0.016-0.5 0.032-0.748 0.032z" fill=""/>
<path d="M933.87 479.124a8.006 8.006 0 0 1-7.964-7.232c-18.958-198.088-176.514-355.322-374.672-373.876a7.996 7.996 0 0 1-7.216-8.708c0.406-4.404 4.36-7.7 8.714-7.222 205.782 19.272 369.41 182.564 389.104 388.276a8.014 8.014 0 0 1-7.966 8.762z" fill=""/>
<path d="M90.068 480.03a8 8 0 0 1-7.972-8.74C101.398 265.08 265.066 101.396 471.268 82.086c4.396-0.46 8.294 2.818 8.708 7.222a8.006 8.006 0 0 1-7.224 8.708c-198.548 18.594-356.148 176.202-374.726 374.758a8.004 8.004 0 0 1-7.958 7.256z" fill=""/>
<path d="M472.018 941.944c-0.25 0-0.5-0.016-0.75-0.032-206.194-19.288-369.862-182.962-389.172-389.182a8 8 0 0 1 7.222-8.714c4.28-0.42 8.292 2.828 8.708 7.216 18.586 198.564 176.186 356.18 374.726 374.75a8.01 8.01 0 0 1 7.224 8.7 8.002 8.002 0 0 1-7.958 7.262z" fill=""/>
<path d="M982.098 480.014a7.988 7.988 0 0 1-7.95-7.326c-18.96-226.044-196.786-403.87-422.838-422.838a7.992 7.992 0 0 1-7.294-8.636 7.986 7.986 0 0 1 8.636-7.292C786.5 53.538 970.476 237.5 990.078 471.346a7.98 7.98 0 0 1-7.98 8.668z" fill=""/>
<path d="M472.034 990.094c-0.226 0-0.446 0-0.68-0.032C237.508 970.446 53.538 786.5 33.93 552.652a7.992 7.992 0 0 1 7.292-8.636c4.584-0.406 8.278 2.906 8.636 7.294 18.96 226.038 196.786 403.862 422.838 422.822a7.994 7.994 0 0 1 7.294 8.636 7.986 7.986 0 0 1-7.956 7.326z" fill=""/>
<path d="M1015.77 519.996h-159.926c-4.422 0-7.998-3.576-7.998-7.996s3.576-7.996 7.998-7.996h159.926c4.42 0 7.996 3.576 7.996 7.996s-3.576 7.996-7.996 7.996z" fill=""/>
<path d="M168.158 519.996H8.23c-4.42 0-7.996-3.576-7.996-7.996s3.576-7.996 7.996-7.996h159.926c4.42 0 7.998 3.576 7.998 7.996s-3.576 7.996-7.996 7.996z" fill=""/>
<path d="M512 1023.766a7.99 7.99 0 0 1-7.996-7.996v-159.926c0-4.422 3.576-7.998 7.996-7.998s7.996 3.576 7.996 7.998v159.926a7.99 7.99 0 0 1-7.996 7.996z" fill=""/>
<path d="M512 176.154a7.992 7.992 0 0 1-7.996-7.998V8.23c0-4.42 3.576-7.996 7.996-7.996s7.996 3.576 7.996 7.996v159.926A7.992 7.992 0 0 1 512 176.154z" fill=""/>
</g>
</svg>